<svg xmlns="http://www.w3.org/2000/svg" viewBox="0 0 1100 720" font-family="Segoe UI, Arial, sans-serif">
  <!-- Background -->
  <rect width="1100" height="720" fill="#f8f9fa" rx="12"/>

  <!-- Title -->
  <text x="550" y="38" text-anchor="middle" font-size="20" font-weight="700" fill="#0078D4">Sumerge IT Ops Intelligence Platform — Architecture</text>
  <text x="550" y="58" text-anchor="middle" font-size="12" fill="#666">Real-time data pipeline: 7 sources → Kafka → PostgreSQL → Power BI</text>

  <!-- ══ LAYER 1: DATA SOURCES ══ -->
  <rect x="20" y="75" width="175" height="570" rx="10" fill="#E3F2FD" stroke="#90CAF9" stroke-width="1.5"/>
  <text x="107" y="98" text-anchor="middle" font-size="12" font-weight="700" fill="#1565C0">DATA SOURCES</text>

  <!-- Source boxes -->
  <!-- Dynamics 365 -->
  <rect x="35" y="108" width="145" height="58" rx="8" fill="#fff" stroke="#0078D4" stroke-width="1.5"/>
  <text x="112" y="127" text-anchor="middle" font-size="10" font-weight="700" fill="#0078D4">Dynamics 365</text>
  <text x="112" y="141" text-anchor="middle" font-size="9" fill="#555">6,402 security roles</text>
  <text x="112" y="154" text-anchor="middle" font-size="9" fill="#555">3,999 user-role pairs</text>

  <!-- SDP -->
  <rect x="35" y="178" width="145" height="58" rx="8" fill="#fff" stroke="#00796B" stroke-width="1.5"/>
  <text x="112" y="197" text-anchor="middle" font-size="10" font-weight="700" fill="#00796B">ManageEngine SDP</text>
  <text x="112" y="211" text-anchor="middle" font-size="9" fill="#555">IT service tickets</text>
  <text x="112" y="224" text-anchor="middle" font-size="9" fill="#555">OAuth2 / REST API</text>

  <!-- Active Directory -->
  <rect x="35" y="248" width="145" height="58" rx="8" fill="#fff" stroke="#6A1B9A" stroke-width="1.5"/>
  <text x="112" y="267" text-anchor="middle" font-size="10" font-weight="700" fill="#6A1B9A">Active Directory</text>
  <text x="112" y="281" text-anchor="middle" font-size="9" fill="#555">Users, Groups, OUs</text>
  <text x="112" y="294" text-anchor="middle" font-size="9" fill="#555">LDAP / Simple bind</text>

  <!-- Zabbix -->
  <rect x="35" y="318" width="145" height="58" rx="8" fill="#fff" stroke="#E65100" stroke-width="1.5"/>
  <text x="112" y="337" text-anchor="middle" font-size="10" font-weight="700" fill="#E65100">Zabbix</text>
  <text x="112" y="351" text-anchor="middle" font-size="9" fill="#555">Network monitoring</text>
  <text x="112" y="364" text-anchor="middle" font-size="9" fill="#555">Hosts + Problems</text>

  <!-- Kaspersky -->
  <rect x="35" y="388" width="145" height="58" rx="8" fill="#fff" stroke="#C62828" stroke-width="1.5"/>
  <text x="112" y="407" text-anchor="middle" font-size="10" font-weight="700" fill="#C62828">Kaspersky</text>
  <text x="112" y="421" text-anchor="middle" font-size="9" fill="#555">Endpoint security</text>
  <text x="112" y="434" text-anchor="middle" font-size="9" fill="#555">XML export</text>

  <!-- MS Graph -->
  <rect x="35" y="458" width="145" height="58" rx="8" fill="#fff" stroke="#0078D4" stroke-width="1.5"/>
  <text x="112" y="477" text-anchor="middle" font-size="10" font-weight="700" fill="#0078D4">Microsoft 365</text>
  <text x="112" y="491" text-anchor="middle" font-size="9" fill="#555">License SKUs</text>
  <text x="112" y="504" text-anchor="middle" font-size="9" fill="#555">MS Graph API</text>

  <!-- Assets -->
  <rect x="35" y="528" width="145" height="58" rx="8" fill="#fff" stroke="#558B2F" stroke-width="1.5"/>
  <text x="112" y="547" text-anchor="middle" font-size="10" font-weight="700" fill="#558B2F">Asset Register</text>
  <text x="112" y="561" text-anchor="middle" font-size="9" fill="#555">429 laptops delivered</text>
  <text x="112" y="574" text-anchor="middle" font-size="9" fill="#555">Excel / openpyxl</text>

  <!-- Arrows source → kafka -->
  <line x1="180" y1="137" x2="300" y2="350" stroke="#0078D4" stroke-width="1.2" stroke-dasharray="5,3" marker-end="url(#arr)"/>
  <line x1="180" y1="207" x2="300" y2="355" stroke="#00796B" stroke-width="1.2" stroke-dasharray="5,3" marker-end="url(#arr)"/>
  <line x1="180" y1="277" x2="300" y2="360" stroke="#6A1B9A" stroke-width="1.2" stroke-dasharray="5,3" marker-end="url(#arr)"/>
  <line x1="180" y1="347" x2="300" y2="365" stroke="#E65100" stroke-width="1.2" stroke-dasharray="5,3" marker-end="url(#arr)"/>
  <line x1="180" y1="417" x2="300" y2="370" stroke="#C62828" stroke-width="1.2" stroke-dasharray="5,3" marker-end="url(#arr)"/>
  <line x1="180" y1="487" x2="300" y2="375" stroke="#0078D4" stroke-width="1.2" stroke-dasharray="5,3" marker-end="url(#arr)"/>
  <line x1="180" y1="557" x2="300" y2="380" stroke="#558B2F" stroke-width="1.2" stroke-dasharray="5,3" marker-end="url(#arr)"/>

  <!-- ══ LAYER 2: KAFKA / REDPANDA ══ -->
  <rect x="245" y="220" width="200" height="310" rx="10" fill="#FFF8E1" stroke="#F9A825" stroke-width="2"/>
  <text x="345" y="244" text-anchor="middle" font-size="12" font-weight="700" fill="#F57F17">REDPANDA (KAFKA)</text>
  <text x="345" y="260" text-anchor="middle" font-size="9" fill="#777">localhost:9092</text>

  <!-- Topics -->
  <rect x="260" y="268" width="170" height="22" rx="5" fill="#FFF3CD" stroke="#F9A825"/>
  <text x="345" y="283" text-anchor="middle" font-size="9" fill="#333">dynamics.roles.raw ✅</text>

  <rect x="260" y="296" width="170" height="22" rx="5" fill="#FFF3CD" stroke="#F9A825"/>
  <text x="345" y="311" text-anchor="middle" font-size="9" fill="#333">dynamics.userroles.raw ✅</text>

  <rect x="260" y="324" width="170" height="22" rx="5" fill="#FFF3CD" stroke="#F9A825"/>
  <text x="345" y="339" text-anchor="middle" font-size="9" fill="#333">sdp.tickets.raw ✅</text>

  <rect x="260" y="352" width="170" height="22" rx="5" fill="#FFF3CD" stroke="#F9A825"/>
  <text x="345" y="367" text-anchor="middle" font-size="9" fill="#333">ad.users.raw ✅</text>

  <rect x="260" y="380" width="170" height="22" rx="5" fill="#FFF3CD" stroke="#F9A825"/>
  <text x="345" y="395" text-anchor="middle" font-size="9" fill="#333">ad.computers.raw ✅</text>

  <rect x="260" y="408" width="170" height="22" rx="5" fill="#FFF3CD" stroke="#F9A825"/>
  <text x="345" y="423" text-anchor="middle" font-size="9" fill="#333">zabbix.problems.raw</text>

  <rect x="260" y="436" width="170" height="22" rx="5" fill="#FFF3CD" stroke="#F9A825"/>
  <text x="345" y="451" text-anchor="middle" font-size="9" fill="#333">zabbix.hosts.raw</text>

  <rect x="260" y="464" width="170" height="22" rx="5" fill="#FFF3CD" stroke="#F9A825"/>
  <text x="345" y="479" text-anchor="middle" font-size="9" fill="#333">ms365.licenses.*.raw</text>

  <rect x="260" y="492" width="170" height="22" rx="5" fill="#FFF3CD" stroke="#F9A825"/>
  <text x="345" y="507" text-anchor="middle" font-size="9" fill="#333">kaspersky.devices.raw</text>

  <!-- Kafka → PG arrow -->
  <line x1="445" y1="375" x2="545" y2="375" stroke="#333" stroke-width="2" marker-end="url(#arr)"/>
  <text x="495" y="368" text-anchor="middle" font-size="9" fill="#555">consumers</text>

  <!-- ══ LAYER 3: POSTGRESQL ══ -->
  <rect x="545" y="220" width="200" height="310" rx="10" fill="#E8F5E9" stroke="#388E3C" stroke-width="2"/>
  <text x="645" y="244" text-anchor="middle" font-size="12" font-weight="700" fill="#1B5E20">POSTGRESQL</text>
  <text x="645" y="260" text-anchor="middle" font-size="9" fill="#777">itopsdb — port 5432</text>

  <!-- Tables -->
  <rect x="558" y="268" width="174" height="20" rx="4" fill="#C8E6C9" stroke="#388E3C"/>
  <text x="645" y="282" text-anchor="middle" font-size="9" fill="#1B5E20" font-weight="600">RAW TABLES</text>

  <text x="572" y="302" font-size="9" fill="#333">• ad_users / ad_computers</text>
  <text x="572" y="318" font-size="9" fill="#333">• ad_groups / ad_ous</text>
  <text x="572" y="334" font-size="9" fill="#333">• ms365_license_skus / users</text>
  <text x="572" y="350" font-size="9" fill="#333">• zabbix_hosts / problems</text>
  <text x="572" y="366" font-size="9" fill="#333">• kaspersky_devices</text>
  <text x="572" y="382" font-size="9" fill="#333">• assets_laptops</text>

  <rect x="558" y="395" width="174" height="20" rx="4" fill="#A5D6A7" stroke="#388E3C"/>
  <text x="645" y="409" text-anchor="middle" font-size="9" fill="#1B5E20" font-weight="600">VIEWS (Identity Bridge)</text>

  <text x="572" y="430" font-size="9" fill="#333">• vw_employee_master</text>
  <text x="572" y="446" font-size="9" fill="#333">• vw_license_summary</text>
  <text x="572" y="462" font-size="9" fill="#333">• vw_ad_entra_gap</text>
  <text x="572" y="478" font-size="9" fill="#333">• vw_asset_ad_match</text>
  <text x="572" y="494" font-size="9" fill="#333">• vw_zabbix_active_problems</text>
  <text x="572" y="510" font-size="9" fill="#333">• vw_users_no_laptop</text>

  <!-- PG → Power BI arrow -->
  <line x1="745" y1="375" x2="840" y2="375" stroke="#333" stroke-width="2" marker-end="url(#arr)"/>
  <text x="793" y="368" text-anchor="middle" font-size="9" fill="#555">DirectQuery</text>

  <!-- ══ LAYER 4: POWER BI ══ -->
  <rect x="840" y="220" width="240" height="310" rx="10" fill="#EDE7F6" stroke="#7B1FA2" stroke-width="2"/>
  <text x="960" y="244" text-anchor="middle" font-size="12" font-weight="700" fill="#4A148C">POWER BI REPORTS</text>

  <rect x="855" y="260" width="210" height="50" rx="6" fill="#fff" stroke="#9C27B0"/>
  <text x="960" y="279" text-anchor="middle" font-size="10" font-weight="700" fill="#4A148C">🏠 Executive Dashboard</text>
  <text x="960" y="295" text-anchor="middle" font-size="9" fill="#666">Headcount · Tickets · Alerts</text>
  <text x="960" y="308" text-anchor="middle" font-size="9" fill="#666">License cost summary</text>

  <rect x="855" y="320" width="210" height="40" rx="6" fill="#fff" stroke="#9C27B0"/>
  <text x="960" y="339" text-anchor="middle" font-size="10" font-weight="700" fill="#4A148C">👤 Identity & Access</text>
  <text x="960" y="354" text-anchor="middle" font-size="9" fill="#666">AD/Entra gaps · Orphan accounts</text>

  <rect x="855" y="370" width="210" height="40" rx="6" fill="#fff" stroke="#9C27B0"/>
  <text x="960" y="389" text-anchor="middle" font-size="10" font-weight="700" fill="#4A148C">💻 Asset Intelligence</text>
  <text x="960" y="404" text-anchor="middle" font-size="9" fill="#666">Laptop coverage · Unassigned</text>

  <rect x="855" y="420" width="210" height="40" rx="6" fill="#fff" stroke="#9C27B0"/>
  <text x="960" y="439" text-anchor="middle" font-size="10" font-weight="700" fill="#4A148C">🛡️ Security Posture</text>
  <text x="960" y="454" text-anchor="middle" font-size="9" fill="#666">Zabbix alerts · Kaspersky AV</text>

  <rect x="855" y="470" width="210" height="40" rx="6" fill="#fff" stroke="#9C27B0"/>
  <text x="960" y="489" text-anchor="middle" font-size="10" font-weight="700" fill="#4A148C">🎫 Service Desk</text>
  <text x="960" y="504" text-anchor="middle" font-size="9" fill="#666">SLA · Volume · Dept breakdown</text>

  <!-- ══ DOCKER LAYER ══ -->
  <rect x="245" y="80" width="555" height="130" rx="10" fill="#F3E5F5" stroke="#AB47BC" stroke-width="1.5" stroke-dasharray="8,4"/>
  <text x="522" y="102" text-anchor="middle" font-size="11" font-weight="700" fill="#6A1B9A">🐳  Docker Compose Stack</text>
  <rect x="270" y="112" width="155" height="60" rx="7" fill="#fff" stroke="#AB47BC"/>
  <text x="347" y="132" text-anchor="middle" font-size="10" font-weight="700" fill="#6A1B9A">Redpanda</text>
  <text x="347" y="148" text-anchor="middle" font-size="9" fill="#555">Kafka-compatible broker</text>
  <text x="347" y="162" text-anchor="middle" font-size="9" fill="#555">port 9092 / 8080 console</text>

  <rect x="445" y="112" width="155" height="60" rx="7" fill="#fff" stroke="#AB47BC"/>
  <text x="522" y="132" text-anchor="middle" font-size="10" font-weight="700" fill="#2E7D32">PostgreSQL 15</text>
  <text x="522" y="148" text-anchor="middle" font-size="9" fill="#555">itopsdb database</text>
  <text x="522" y="162" text-anchor="middle" font-size="9" fill="#555">port 5432</text>

  <rect x="620" y="112" width="155" height="60" rx="7" fill="#fff" stroke="#AB47BC"/>
  <text x="697" y="132" text-anchor="middle" font-size="10" font-weight="700" fill="#0D47A1">Python Producers</text>
  <text x="697" y="148" text-anchor="middle" font-size="9" fill="#555">5 producers + 4 loaders</text>
  <text x="697" y="162" text-anchor="middle" font-size="9" fill="#555">scheduled / on-demand</text>

  <!-- Legend -->
  <rect x="20" y="660" width="1060" height="45" rx="6" fill="#fff" stroke="#ddd"/>
  <text x="35" y="678" font-size="10" font-weight="700" fill="#333">Legend:</text>
  <line x1="85" y1="673" x2="115" y2="673" stroke="#333" stroke-width="2" marker-end="url(#arr)"/>
  <text x="120" y="678" font-size="10" fill="#555">Data flow</text>
  <line x1="185" y1="673" x2="215" y2="673" stroke="#555" stroke-width="1.5" stroke-dasharray="5,3" marker-end="url(#arr)"/>
  <text x="220" y="678" font-size="10" fill="#555">Async / VPN</text>
  <rect x="305" y="664" width="14" height="14" rx="3" fill="#FFF3CD" stroke="#F9A825"/>
  <text x="325" y="678" font-size="10" fill="#555">Kafka topic</text>
  <rect x="410" y="664" width="14" height="14" rx="3" fill="#C8E6C9" stroke="#388E3C"/>
  <text x="430" y="678" font-size="10" fill="#555">PostgreSQL table/view</text>
  <text x="575" y="678" font-size="10" fill="#666">✅ = live in production</text>
  <text x="700" y="678" font-size="10" fill="#666">Join key: canonical_email (lowercase) across all tables</text>

  <text x="35" y="698" font-size="10" fill="#555">Stack: Python 3.11 · Redpanda · PostgreSQL 15 · Docker · Power BI · ldap3 · confluent-kafka · psycopg2 · openpyxl · requests</text>

  <!-- Arrow marker -->
  <defs>
    <marker id="arr" markerWidth="8" markerHeight="8" refX="6" refY="3" orient="auto">
      <path d="M0,0 L0,6 L8,3 z" fill="#555"/>
    </marker>
  </defs>
</svg>
